<svg xmlns="http://www.w3.org/2000/svg" viewBox="0 0 100 100" role="img" aria-label="ClassConnect"><defs><linearGradient id="g" x1="0" y1="0" x2="1" y2="1"><stop offset="0" stop-color="#572C74"/><stop offset="1" stop-color="#91549A"/></linearGradient></defs><path fill-rule="evenodd" fill="url(#g)" d="M21.25 0.07L77.37 0.03L80.17 0.18L82.44 0.56L84.59 1.15L86.61 1.93L88.75 3.04L90.64 4.27L92.72 5.97L94.1 7.35L95.6 9.17L96.57 10.6L97.36 11.96L98 13.26L98.65 14.89L99.43 17.69L99.7 19.18L99.89 21.2L99.89 81.73L99.69 83.68L99.23 85.83L98.52 87.91L97.73 89.6L96.63 91.42L95.39 93.04L93.89 94.62L92.2 96.04L90.96 96.9L89.53 97.73L87.32 98.72L84.66 99.5L83.16 99.75L81.73 99.88L18.21 99.89L15.93 99.63L13.98 99.17L11.77 98.39L9.95 97.49L8.39 96.51L6.63 95.15L5.19 93.76L3.62 91.87L2.2 89.6L1.15 87.26L0.43 84.72L0.17 83.22L0.04 81.79L0.03 21.65L0.17 19.64L0.43 18.01L0.95 15.93L1.53 14.24L2.19 12.74L3.1 11.05L4.07 9.56L5.18 8.13L6.29 6.89L7.67 5.57L9.3 4.28L10.66 3.35L12.29 2.44L14.11 1.61L15.99 0.95L17.82 0.5L19.83 0.17L21.25 0.07ZM17.95 21.78L17.43 22.02L17.09 22.37L16.89 22.76L16.8 23.41L16.8 67.3L16.89 67.95L17.08 68.4L17.41 68.92L17.75 69.26L18.14 69.53L18.73 69.79L46.75 79.27L47.27 79.35L47.79 79.21L48.25 78.8L48.47 78.22L48.45 67.04L47.66 67.45L46.75 67.78L45.84 67.97L44.93 68.04L44.21 68.03L43.11 67.84L42.13 67.51L41.35 67.12L40.51 66.54L39.9 65.99L39.37 65.41L38.79 64.56L38.34 63.65L38.07 62.87L37.88 61.96L37.81 60.92L37.95 59.56L38.28 58.45L38.99 57.09L39.72 56.18L40.7 55.31L41.94 54.59L43.04 54.2L44.8 53.86L45.51 53.54L46.1 53.13L46.71 52.54L47.22 51.82L48.14 50.07L48.7 48.76L48.91 47.98L48.98 47.2L48.91 46.55L48.61 45.58L48.48 44.8L48.47 34.01L48.32 33.16L48.07 32.57L47.74 32.05L47.27 31.58L46.29 31L18.99 21.89L18.53 21.76L17.95 21.78ZM81.34 21.78L53.64 31L52.73 31.52L52.26 31.99L51.86 32.57L51.61 33.16L51.47 33.88L51.46 39.14L52.86 38.86L54.23 38.92L55.4 39.26L56.44 39.84L57.38 40.7L58.03 41.61L58.35 42.26L58.61 43.04L58.76 44.28L58.73 44.99L58.47 46.1L58.09 46.94L57.63 47.66L56.89 48.46L56.18 48.99L55.07 49.51L53.51 49.91L52.93 50.25L52.56 50.59L51.93 51.37L50.97 53.19L50.58 54.1L50.38 54.88L50.32 55.72L50.44 56.57L51.44 58.84L51.64 59.62L51.77 60.6L51.71 61.9L51.45 63.13L51.45 78.09L51.48 78.35L51.68 78.8L52.15 79.21L52.67 79.35L53.19 79.28L81.27 69.78L82.16 69.31L82.6 68.86L82.86 68.47L83.11 67.75L83.16 67.17L83.14 23.34L83.03 22.7L82.62 22.11L81.99 21.77L81.34 21.78Z"/><path fill-rule="evenodd" fill="#EDE0FC" d="M17.93 21.78L18.53 21.75L18.99 21.88L19.44 22.04L19.44 22.14L19.57 22.08L46.29 30.99L47.2 31.51L47.74 32.05L48.08 32.57L48.08 32.77L48.18 32.78L48.33 33.16L48.48 34.01L48.48 44.73L48.99 47.2L48.91 48.05L48.71 48.76L47.55 51.24L47.27 51.74L47.17 51.76L47.23 51.82L46.77 52.47L46.1 53.14L44.86 53.85L43.04 54.2L41.94 54.59L40.7 55.31L39.72 56.18L39 57.09L38.34 58.32L37.95 59.56L37.81 60.92L38.01 62.61L37.94 62.68L38.04 62.69L38.19 63.2L38.13 63.39L38.23 63.34L38.79 64.56L39.38 65.41L39.99 66.07L41.48 67.18L43.11 67.83L44.99 68.04L46.75 67.77L48.46 67.04L48.48 78.22L48.26 78.8L47.79 79.22L47.27 79.36L46.75 79.28L18.73 69.79L17.75 69.26L17.14 68.53L16.89 67.95L16.79 67.23L16.8 23.41L16.88 22.76L17.08 22.37L17.43 22.01L17.93 21.78ZM81.32 21.78L81.99 21.77L82.63 22.11L83.03 22.69L83.15 23.34L83.16 67.17L83.12 67.75L82.86 68.47L82.17 69.31L81.27 69.78L53.19 79.29L52.67 79.36L52.15 79.21L51.68 78.8L51.45 78.09L51.44 63.13L51.71 61.9L51.76 60.66L51.46 58.91L50.44 56.57L50.32 55.72L50.37 54.88L50.96 53.19L51.92 51.37L52.55 50.59L53.51 49.91L55.07 49.51L56.18 48.98L56.89 48.46L57.63 47.66L58.47 46.1L58.67 45.32L58.75 44.28L58.6 43.04L58.02 41.61L57.38 40.7L56.44 39.85L55.53 39.32L54.23 38.92L52.86 38.86L51.45 39.14L51.47 33.81L51.86 32.57L52.25 31.99L52.73 31.51L53.64 30.99L81.32 21.78Z"/><path fill-rule="evenodd" fill="#3B5C85" d="M52.76 41.42L53.84 41.39L54.1 41.52L54.29 41.52L54.49 41.65L54.62 41.65L55.01 41.91L55.49 42.33L55.95 42.98L55.95 43.11L56.08 43.24L56.08 43.43L56.21 43.63L56.21 44.08L56.27 44.15L56.21 44.21L56.27 44.28L56.27 44.41L56.21 44.47L56.21 44.93L56.08 45.19L56.08 45.38L55.69 46.1L55.07 46.71L54.36 47.1L54.16 47.11L53.97 47.24L53.77 47.24L53.19 47.5L52.99 47.63L52.93 47.76L52.86 47.76L52.44 48.24L52.18 48.76L52.05 48.89L51.66 49.74L51.53 49.87L51.53 50L51.4 50.13L51.4 50.26L51.27 50.39L50.75 51.5L50.62 51.63L50.62 51.76L50.49 51.89L50.49 52.02L50.36 52.15L49.97 52.99L49.84 53.12L49.84 53.25L49.71 53.38L49.71 53.51L49.58 53.64L49.58 53.77L49.45 53.9L49.45 54.03L49.32 54.16L49.06 54.75L48.93 54.88L48.93 55.01L48.8 55.14L48.8 55.27L48.54 55.66L48.4 56.11L48.28 56.24L48.28 56.44L48.15 56.7L48.15 57.74L48.28 57.93L48.28 58.06L48.67 58.58L48.67 58.71L48.93 59.1L48.93 59.23L49.18 59.75L49.25 60.47L49.31 60.53L49.31 61.51L49.19 61.83L49.19 62.09L49.06 62.35L49.06 62.55L48.93 62.68L48.93 62.81L48.67 63.33L48.01 64.17L47.59 64.53L47.01 64.92L46.16 65.31L45.9 65.31L45.64 65.44L44.93 65.44L44.86 65.51L44.8 65.44L44.73 65.51L44.67 65.44L44.6 65.51L44.54 65.44L43.95 65.44L43.69 65.31L43.5 65.31L43.3 65.18L43.11 65.18L42.2 64.66L41.45 63.98L40.87 63.13L40.74 62.87L40.74 62.74L40.61 62.55L40.61 62.35L40.48 62.16L40.48 61.9L40.35 61.64L40.35 60.34L40.48 60.01L40.48 59.75L40.61 59.56L40.61 59.36L40.74 59.17L40.74 59.04L41.39 58.06L42.2 57.32L43.24 56.73L43.43 56.73L43.69 56.6L43.95 56.6L44.02 56.54L44.28 56.53L44.34 56.47L44.99 56.47L45.19 56.34L45.32 56.34L46.03 55.82L46.72 55.01L46.85 54.68L46.98 54.55L46.98 54.42L47.11 54.29L47.11 54.16L47.24 54.03L47.5 53.45L47.63 53.32L47.63 53.19L47.76 53.06L47.76 52.93L47.89 52.8L48.54 51.43L48.67 51.3L48.67 51.17L48.8 51.04L48.8 50.91L48.93 50.78L49.84 48.89L49.97 48.76L49.97 48.63L50.1 48.5L50.36 47.98L50.36 47.85L50.49 47.72L50.49 47.59L50.62 47.46L50.62 47.33L50.75 47.14L50.75 46.94L50.88 46.68L50.88 46.23L50.75 45.9L50.75 45.71L50.49 45.19L50.49 44.93L50.36 44.6L50.36 43.95L50.42 43.89L50.55 43.24L50.81 42.72L51.43 42.04L52.02 41.65L52.76 41.42Z"/></svg>